<svg xmlns:xlink="http://www.w3.org/1999/xlink" xmlns="http://www.w3.org/2000/svg" xmlns:svg="http://www.w3.org/2000/svg" id="svg1" width="1122.52" height="793.70135" viewBox="0 0 1122.52 793.70135"><defs id="defs1"><clipPath clipPathUnits="userSpaceOnUse" id="clipPath2"><path d="M 0,595.276 H 841.89 V 0 H 0 Z" transform="translate(-108.2496,-264.0149)" id="path2"></path></clipPath><clipPath clipPathUnits="userSpaceOnUse" id="clipPath4"><path d="M 0,595.276 H 841.89 V 0 H 0 Z" transform="translate(-162.44541,-310.09321)" id="path4"></path></clipPath><clipPath clipPathUnits="userSpaceOnUse" id="clipPath6"><path d="M 0,595.276 H 841.89 V 0 H 0 Z" transform="translate(-231.42361,-326.79011)" id="path6"></path></clipPath><clipPath clipPathUnits="userSpaceOnUse" id="clipPath8"><path d="M 0,595.276 H 841.89 V 0 H 0 Z" transform="translate(-311.26281,-264.0149)" id="path8"></path></clipPath><clipPath clipPathUnits="userSpaceOnUse" id="clipPath10"><path d="M 0,595.276 H 841.89 V 0 H 0 Z" transform="translate(-402.13651,-237.46171)" id="path10"></path></clipPath><clipPath clipPathUnits="userSpaceOnUse" id="clipPath12"><path d="M 0,595.276 H 841.89 V 0 H 0 Z" transform="translate(-535.80832,-212.37091)" id="path12"></path></clipPath><clipPath clipPathUnits="userSpaceOnUse" id="clipPath14"><path d="M 0,595.276 H 841.89 V 0 H 0 Z" transform="translate(-595.29742,-222.95551)" id="path14"></path></clipPath><clipPath clipPathUnits="userSpaceOnUse" id="clipPath16"><path d="M 0,595.276 H 841.89 V 0 H 0 Z" transform="translate(-637.81322,-326.79011)" id="path16"></path></clipPath><clipPath clipPathUnits="userSpaceOnUse" id="clipPath18"><path d="M 0,595.276 H 841.89 V 0 H 0 Z" transform="translate(-709.34942,-222.95551)" id="path18"></path></clipPath><clipPath clipPathUnits="userSpaceOnUse" id="clipPath20"><path d="M 0,595.276 H 841.89 V 0 H 0 Z" transform="translate(-764.00109,-258.90521)" id="path20"></path></clipPath><clipPath clipPathUnits="userSpaceOnUse" id="clipPath22"><path d="M 0,595.276 H 841.89 V 0 H 0 Z" transform="translate(-311.73441,-319.89161)" id="path22"></path></clipPath><clipPath clipPathUnits="userSpaceOnUse" id="clipPath24"><path d="M 0,595.276 H 841.89 V 0 H 0 Z" transform="translate(-406.50291,-429.49701)" id="path24"></path></clipPath><clipPath clipPathUnits="userSpaceOnUse" id="clipPath26"><path d="M 0,595.276 H 841.89 V 0 H 0 Z" transform="translate(-453.56221,-328.08931)" id="path26"></path></clipPath><clipPath clipPathUnits="userSpaceOnUse" id="clipPath28"><path d="M 0,595.276 H 841.89 V 0 H 0 Z" transform="translate(-507.20771,-315.96751)" id="path28"></path></clipPath><clipPath clipPathUnits="userSpaceOnUse" id="clipPath30"><path d="M 0,595.276 H 841.89 V 0 H 0 Z" id="path30"></path></clipPath><clipPath clipPathUnits="userSpaceOnUse" id="clipPath32"><path d="M 0,595.276 H 841.89 V 0 H 0 Z" transform="translate(-163.12071,-175.0517)" id="path32"></path></clipPath><clipPath clipPathUnits="userSpaceOnUse" id="clipPath34"><path d="M 0,595.276 H 841.89 V 0 H 0 Z" transform="translate(-174.5989,-163.1579)" id="path34"></path></clipPath><clipPath clipPathUnits="userSpaceOnUse" id="clipPath36"><path d="M 0,595.276 H 841.89 V 0 H 0 Z" transform="translate(-226.7512,-163.1579)" id="path36"></path></clipPath><clipPath clipPathUnits="userSpaceOnUse" id="clipPath38"><path d="M 0,595.276 H 841.89 V 0 H 0 Z" transform="translate(-263.8144,-175.0517)" id="path38"></path></clipPath><clipPath clipPathUnits="userSpaceOnUse" id="clipPath40"><path d="M 0,595.276 H 841.89 V 0 H 0 Z" transform="translate(-281.81641,-171.3137)" id="path40"></path></clipPath><clipPath clipPathUnits="userSpaceOnUse" id="clipPath42"><path d="M 0,595.276 H 841.89 V 0 H 0 Z" transform="translate(-313.81831,-171.3137)" id="path42"></path></clipPath><clipPath clipPathUnits="userSpaceOnUse" id="clipPath44"><path d="M 0,595.276 H 841.89 V 0 H 0 Z" id="path44"></path></clipPath><clipPath clipPathUnits="userSpaceOnUse" id="clipPath46"><path d="M 0,595.276 H 841.89 V 0 H 0 Z" transform="translate(-357.23181,-153.8482)" id="path46"></path></clipPath><clipPath clipPathUnits="userSpaceOnUse" id="clipPath48"><path d="M 0,595.276 H 841.89 V 0 H 0 Z" transform="translate(-382.74411,-153.7796)" id="path48"></path></clipPath><clipPath clipPathUnits="userSpaceOnUse" id="clipPath50"><path d="M 0,595.276 H 841.89 V 0 H 0 Z" transform="translate(-417.39661,-171.3137)" id="path50"></path></clipPath><clipPath clipPathUnits="userSpaceOnUse" id="clipPath52"><path d="M 0,595.276 H 841.89 V 0 H 0 Z" transform="translate(-458.94821,-163.1579)" id="path52"></path></clipPath><clipPath clipPathUnits="userSpaceOnUse" id="clipPath54"><path d="M 0,595.276 H 841.89 V 0 H 0 Z" transform="translate(-484.45851,-171.3137)" id="path54"></path></clipPath><clipPath clipPathUnits="userSpaceOnUse" id="clipPath56"><path d="M 0,595.276 H 841.89 V 0 H 0 Z" id="path56"></path></clipPath><clipPath clipPathUnits="userSpaceOnUse" id="clipPath58"><path d="M 0,595.276 H 841.89 V 0 H 0 Z" transform="translate(-541.97272,-154.96981)" id="path58"></path></clipPath><clipPath clipPathUnits="userSpaceOnUse" id="clipPath60"><path d="M 0,595.276 H 841.89 V 0 H 0 Z" transform="translate(-557.76781,-153.8482)" id="path60"></path></clipPath><clipPath clipPathUnits="userSpaceOnUse" id="clipPath62"><path d="M 0,595.276 H 841.89 V 0 H 0 Z" transform="translate(-583.58471,-163.1579)" id="path62"></path></clipPath><clipPath clipPathUnits="userSpaceOnUse" id="clipPath64"><path d="M 0,595.276 H 841.89 V 0 H 0 Z" transform="translate(-635.73502,-163.1579)" id="path64"></path></clipPath><clipPath clipPathUnits="userSpaceOnUse" id="clipPath66"><path d="M 0,595.276 H 841.89 V 0 H 0 Z" transform="translate(-661.24532,-171.3137)" id="path66"></path></clipPath><clipPath clipPathUnits="userSpaceOnUse" id="clipPath68"><path d="M 0,595.276 H 841.89 V 0 H 0 Z" transform="translate(-698.75231,-166.5913)" id="path68"></path></clipPath><clipPath clipPathUnits="userSpaceOnUse" id="clipPath70"><path d="M 0,595.276 H 841.89 V 0 H 0 Z" id="path70"></path></clipPath><clipPath clipPathUnits="userSpaceOnUse" id="clipPath72"><path d="M 0,595.276 H 841.89 V 0 H 0 Z" id="path72"></path></clipPath><clipPath clipPathUnits="userSpaceOnUse" id="clipPath74"><path d="M 0,595.276 H 841.89 V 0 H 0 Z" id="path74"></path></clipPath></defs><g id="layer-MC0"><path id="path1" d="m 0,0 c 0,1.519 -0.107,3.193 -0.321,5.017 -0.214,1.826 -0.577,3.665 -1.093,5.521 -0.519,1.854 -1.219,3.633 -2.1,5.338 -0.882,1.702 -1.993,3.223 -3.331,4.563 -1.337,1.335 -2.919,2.417 -4.744,3.238 -1.824,0.821 -3.924,1.232 -6.296,1.232 -3.589,0 -6.659,-0.912 -9.215,-2.737 -2.554,-1.826 -4.623,-4.335 -6.205,-7.529 -1.582,-3.193 -2.737,-6.965 -3.466,-11.312 -0.73,-4.352 -1.095,-9.05 -1.095,-14.099 0,-1.338 0.014,-3.147 0.044,-5.429 0.031,-2.281 0.214,-4.73 0.549,-7.344 0.333,-2.617 0.865,-5.263 1.596,-7.938 0.73,-2.677 1.793,-5.08 3.193,-7.208 1.4,-2.13 3.193,-3.879 5.384,-5.247 2.191,-1.37 4.896,-2.054 8.122,-2.054 4.135,0 7.449,0.761 9.945,2.282 2.493,1.519 4.409,3.375 5.747,5.566 1.337,2.19 2.221,4.516 2.647,6.979 0.425,2.463 0.639,4.638 0.639,6.524 z m 35.673,-51.644 c 0.488,-0.123 0.835,-0.321 1.049,-0.593 0.214,-0.274 0.291,-0.563 0.23,-0.867 -0.06,-0.305 -0.23,-0.579 -0.5,-0.821 -0.274,-0.245 -0.658,-0.366 -1.142,-0.366 H 2.282 c -0.672,0 -1.203,0.152 -1.598,0.456 -0.396,0.305 -0.593,0.791 -0.593,1.461 v 8.029 c 0,0.425 -0.154,0.7 -0.456,0.821 -0.305,0.121 -0.579,0.03 -0.821,-0.273 -0.549,-0.672 -1.461,-1.721 -2.738,-3.149 -1.277,-1.43 -3.027,-2.86 -5.246,-4.288 -2.221,-1.431 -4.959,-2.677 -8.213,-3.74 -3.254,-1.064 -7.07,-1.598 -11.45,-1.598 -4.867,0 -9.124,0.639 -12.775,1.916 -3.649,1.277 -6.796,3.012 -9.443,5.201 -2.647,2.191 -4.835,4.684 -6.57,7.482 -1.733,2.798 -3.103,5.749 -4.105,8.852 -1.005,3.102 -1.705,6.203 -2.1,9.305 -0.396,3.103 -0.593,6.024 -0.593,8.759 0,6.812 0.837,13.003 2.509,18.569 1.673,5.566 4.198,10.324 7.573,14.28 3.377,3.954 7.605,6.994 12.685,9.124 5.077,2.129 11.054,3.194 17.929,3.194 3.831,0 7.145,-0.228 9.945,-0.684 2.796,-0.456 5.11,-0.975 6.933,-1.551 1.826,-0.579 3.196,-1.126 4.108,-1.643 0.911,-0.518 1.428,-0.806 1.551,-0.867 0.302,-0.244 0.593,-0.305 0.865,-0.181 0.275,0.121 0.412,0.332 0.412,0.637 v 36.954 c 0,0.789 -0.365,1.277 -1.096,1.461 -0.123,0 -0.562,0.09 -1.323,0.272 -0.76,0.184 -1.628,0.395 -2.6,0.639 -0.972,0.243 -1.87,0.456 -2.691,0.64 -0.821,0.182 -1.324,0.303 -1.505,0.363 -0.793,0.184 -1.202,0.593 -1.233,1.233 -0.032,0.639 0.412,1.079 1.324,1.323 2.372,0.547 4.94,1.291 7.71,2.235 2.767,0.942 5.549,2.007 8.349,3.193 2.796,1.187 5.503,2.463 8.12,3.833 2.614,1.368 4.958,2.752 7.026,4.152 0.546,0.365 1.109,0.516 1.688,0.456 0.577,-0.061 0.866,-0.517 0.866,-1.368 V -39.966 c 0,-2.433 0.486,-4.396 1.46,-5.884 0.972,-1.491 2.084,-2.647 3.331,-3.468 1.246,-0.821 2.461,-1.4 3.647,-1.733 1.186,-0.335 2.025,-0.534 2.509,-0.593" style="fill:#7c2e41;fill-opacity:1;fill-rule:nonzero;stroke:none" transform="matrix(1.3333333,0,0,-1.3333333,144.3328,441.68147)" clip-path="url(#clipPath2)"></path><path id="path3" d="m 0,0 c -0.791,0.789 -1.582,1.596 -2.372,2.417 -0.791,0.821 -1.493,1.688 -2.098,2.6 -0.609,0.914 -1.11,1.947 -1.505,3.102 -0.396,1.156 -0.593,2.464 -0.593,3.924 0,1.763 0.331,3.435 1.004,5.019 0.666,1.582 1.594,2.965 2.78,4.152 1.186,1.186 2.586,2.128 4.2,2.828 1.61,0.698 3.361,1.049 5.245,1.049 1.884,0 3.619,-0.396 5.2,-1.186 1.582,-0.791 2.934,-1.84 4.063,-3.147 1.122,-1.31 1.989,-2.831 2.598,-4.563 0.61,-1.733 0.912,-3.545 0.912,-5.429 0,-4.077 -0.682,-7.817 -2.053,-11.224 -1.368,-3.407 -3.147,-6.447 -5.338,-9.124 -2.187,-2.677 -4.624,-5.033 -7.298,-7.07 -2.679,-2.04 -5.294,-3.728 -7.848,-5.066 -0.851,-0.486 -1.504,-0.442 -1.96,0.137 -0.456,0.579 -0.259,1.324 0.593,2.235 1.279,1.279 2.433,2.798 3.465,4.563 1.033,1.764 1.812,3.559 2.328,5.385 0.517,1.823 0.698,3.572 0.549,5.244 C 1.719,-2.479 1.093,-1.095 0,0" style="fill:#7c2e41;fill-opacity:1;fill-rule:nonzero;stroke:none" transform="matrix(1.3333333,0,0,-1.3333333,216.59387,380.24373)" clip-path="url(#clipPath4)"></path><path id="path5" d="m 0,0 c -0.73,1.763 -1.747,3.298 -3.054,4.607 -1.311,1.308 -2.861,2.342 -4.656,3.103 -1.795,0.76 -3.784,1.14 -5.975,1.14 -2.13,0 -4.14,-0.396 -6.024,-1.186 -1.884,-0.791 -3.514,-1.856 -4.881,-3.194 -1.368,-1.337 -2.449,-2.905 -3.24,-4.698 -0.791,-1.795 -1.186,-3.696 -1.186,-5.703 0,-2.007 0.367,-3.893 1.097,-5.658 0.73,-1.763 1.747,-3.284 3.054,-4.561 1.307,-1.277 2.861,-2.298 4.656,-3.056 1.791,-0.763 3.756,-1.142 5.886,-1.142 2.187,0 4.208,0.395 6.064,1.186 1.856,0.791 3.482,1.84 4.882,3.149 1.4,1.307 2.493,2.858 3.288,4.654 0.787,1.793 1.186,3.693 1.186,5.703 C 1.097,-3.649 0.73,-1.765 0,0 m -0.73,-102.741 c 0,-2.433 0.488,-4.396 1.46,-5.885 0.973,-1.49 2.082,-2.646 3.333,-3.467 1.242,-0.821 2.461,-1.4 3.647,-1.733 1.186,-0.335 2.021,-0.535 2.509,-0.593 0.489,-0.123 0.836,-0.321 1.049,-0.593 0.214,-0.275 0.291,-0.563 0.23,-0.868 -0.06,-0.304 -0.23,-0.579 -0.504,-0.821 -0.27,-0.244 -0.654,-0.365 -1.138,-0.365 h -45.804 c -0.488,0 -0.867,0.121 -1.141,0.365 -0.275,0.242 -0.444,0.517 -0.501,0.821 -0.064,0.305 0.012,0.593 0.226,0.868 0.214,0.272 0.561,0.47 1.049,0.593 0.488,0.058 1.324,0.258 2.51,0.593 1.186,0.333 2.404,0.912 3.651,1.733 1.247,0.821 2.356,1.977 3.328,3.467 0.973,1.489 1.461,3.452 1.461,5.885 v 50.732 c 0,0.791 -0.363,1.277 -1.093,1.46 -0.125,0 -0.565,0.091 -1.324,0.273 -0.762,0.183 -1.63,0.395 -2.602,0.639 -0.972,0.242 -1.868,0.456 -2.691,0.64 -0.823,0.181 -1.323,0.302 -1.505,0.365 -0.791,0.181 -1.202,0.593 -1.23,1.23 -0.033,0.64 0.407,1.08 1.319,1.324 2.372,0.546 4.942,1.291 7.71,2.235 2.768,0.942 5.551,2.007 8.351,3.193 2.796,1.186 5.503,2.465 8.122,3.833 2.614,1.368 4.954,2.751 7.024,4.151 0.549,0.366 1.109,0.517 1.686,0.456 0.581,-0.06 0.868,-0.516 0.868,-1.367 z" style="fill:#7c2e41;fill-opacity:1;fill-rule:nonzero;stroke:none" transform="matrix(1.3333333,0,0,-1.3333333,308.5648,357.9812)" clip-path="url(#clipPath6)"></path><path id="path7" d="m 0,0 c 0,1.519 -0.105,3.193 -0.319,5.017 -0.214,1.826 -0.577,3.665 -1.093,5.521 -0.521,1.854 -1.219,3.633 -2.102,5.338 -0.88,1.702 -1.993,3.223 -3.329,4.563 -1.339,1.335 -2.921,2.417 -4.744,3.238 -1.824,0.821 -3.926,1.232 -6.298,1.232 -3.587,0 -6.657,-0.912 -9.215,-2.737 -2.554,-1.826 -4.623,-4.335 -6.205,-7.529 -1.582,-3.193 -2.735,-6.965 -3.466,-11.312 -0.73,-4.352 -1.093,-9.05 -1.093,-14.099 0,-1.338 0.012,-3.147 0.044,-5.429 0.029,-2.281 0.214,-4.73 0.549,-7.344 0.331,-2.617 0.863,-5.263 1.594,-7.938 0.73,-2.677 1.795,-5.08 3.195,-7.208 1.4,-2.13 3.191,-3.879 5.382,-5.247 2.191,-1.37 4.898,-2.054 8.122,-2.054 4.135,0 7.451,0.761 9.945,2.282 2.493,1.519 4.409,3.375 5.749,5.566 1.335,2.19 2.219,4.516 2.647,6.979 0.423,2.463 0.637,4.638 0.637,6.524 z m 7.028,74.134 c 2.796,1.187 5.503,2.463 8.118,3.833 2.614,1.368 4.958,2.752 7.028,4.152 0.544,0.365 1.109,0.516 1.686,0.456 0.577,-0.061 0.868,-0.517 0.868,-1.368 V -39.966 c 0,-2.433 0.484,-4.396 1.46,-5.884 0.972,-1.491 2.082,-2.647 3.329,-3.468 1.246,-0.821 2.465,-1.4 3.651,-1.733 1.186,-0.335 2.021,-0.534 2.509,-0.593 0.484,-0.123 0.835,-0.321 1.049,-0.593 0.214,-0.274 0.287,-0.563 0.226,-0.867 -0.06,-0.305 -0.226,-0.579 -0.5,-0.821 -0.274,-0.245 -0.654,-0.366 -1.142,-0.366 H 2.284 c -0.674,0 -1.203,0.152 -1.598,0.456 -0.396,0.305 -0.593,0.791 -0.593,1.461 v 8.029 c 0,0.425 -0.154,0.7 -0.456,0.821 -0.307,0.121 -0.581,0.03 -0.823,-0.273 -0.549,-0.672 -1.461,-1.721 -2.736,-3.149 -1.279,-1.43 -3.029,-2.86 -5.248,-4.288 -2.219,-1.431 -4.959,-2.677 -8.211,-3.74 -3.256,-1.064 -7.072,-1.598 -11.45,-1.598 -4.869,0 -9.126,0.639 -12.777,1.916 -3.647,1.277 -6.794,3.012 -9.441,5.201 -2.646,2.191 -4.837,4.684 -6.572,7.482 -1.731,2.798 -3.103,5.749 -4.103,8.852 -1.005,3.102 -1.707,6.203 -2.102,9.305 -0.396,3.103 -0.593,6.024 -0.593,8.759 0,6.812 0.839,13.003 2.509,18.569 1.675,5.566 4.2,10.324 7.573,14.28 3.377,3.954 7.605,6.994 12.685,9.124 5.079,2.129 11.054,3.194 17.929,3.194 3.833,0 7.145,-0.228 9.945,-0.684 2.796,-0.456 5.112,-0.975 6.935,-1.551 1.824,-0.579 3.196,-1.126 4.108,-1.643 0.911,-0.518 1.428,-0.806 1.549,-0.867 0.302,-0.244 0.593,-0.305 0.867,-0.181 0.275,0.121 0.822,0.332 0.822,0.637 v 36.954" style="fill:#7c2e41;fill-opacity:1;fill-rule:nonzero;stroke:none" transform="matrix(1.3333333,0,0,-1.3333333,415.01707,441.68147)" clip-path="url(#clipPath8)"></path><path id="path9" d="M 0,0 C 0.125,0.791 -0.242,1.186 -1.093,1.186 -1.275,1.186 -1.884,1.172 -2.917,1.14 -3.954,1.112 -5.213,1.065 -6.705,1.005 -8.194,0.944 -9.792,0.884 -11.494,0.821 -13.197,0.76 -14.827,0.7 -16.376,0.639 c -1.553,-0.06 -2.889,-0.106 -4.014,-0.137 -1.126,-0.03 -1.84,-0.076 -2.147,-0.137 -0.972,-0.06 -1.989,-0.486 -3.054,-1.277 -1.065,-0.791 -1.598,-2.158 -1.598,-4.107 0,-1.763 0.242,-3.8 0.731,-6.112 0.488,-2.312 1.262,-4.501 2.323,-6.57 1.066,-2.068 2.421,-3.817 4.063,-5.247 1.642,-1.429 3.651,-2.145 6.024,-2.145 1.884,0 3.526,0.503 4.926,1.507 1.4,1.003 2.598,2.312 3.603,3.924 1.004,1.612 1.84,3.391 2.509,5.337 0.67,1.947 1.219,3.847 1.642,5.703 0.428,1.856 0.747,3.559 0.961,5.11 C -0.194,-1.961 -0.056,-0.789 0,0 m -1.001,6.022 c 0.973,0 1.457,0.518 1.457,1.551 0,6.205 -0.545,11.528 -1.642,15.968 -1.094,4.44 -2.691,8.076 -4.789,10.904 -2.098,2.828 -4.712,4.912 -7.847,6.249 -3.131,1.34 -6.766,2.007 -10.906,2.007 -3.159,0 -5.975,-0.332 -8.436,-1.002 -2.465,-0.67 -4.611,-1.445 -6.435,-2.328 -1.823,-0.88 -3.312,-1.717 -4.47,-2.508 -1.154,-0.79 -2.009,-1.309 -2.554,-1.551 -0.851,-0.365 -1.521,-0.288 -2.009,0.228 -0.484,0.517 -0.484,1.293 0,2.326 0.181,0.365 0.593,1.081 1.23,2.144 0.642,1.065 1.57,2.298 2.784,3.696 1.219,1.4 2.74,2.86 4.563,4.379 1.824,1.521 4.002,2.919 6.524,4.198 2.526,1.277 5.414,2.326 8.67,3.147 3.252,0.821 6.887,1.233 10.902,1.233 6.084,0 11.587,-0.958 16.517,-2.875 4.926,-1.916 9.138,-4.698 12.636,-8.349 3.498,-3.649 6.205,-8.089 8.122,-13.32 1.916,-5.231 2.872,-11.133 2.872,-17.702 0,-7.177 -1.186,-13.533 -3.558,-19.071 -2.373,-5.533 -5.475,-10.173 -9.308,-13.913 -3.833,-3.742 -8.178,-6.584 -13.048,-8.533 -4.865,-1.945 -9.824,-2.919 -14.871,-2.919 -4.744,0 -8.928,0.654 -12.547,1.961 -3.619,1.309 -6.75,3.012 -9.397,5.11 -2.646,2.1 -4.837,4.442 -6.572,7.026 -1.731,2.586 -3.131,5.156 -4.196,7.71 -1.065,2.556 -1.807,4.958 -2.235,7.209 -0.424,2.25 -0.637,4.045 -0.637,5.382 0,0.61 0.197,1.035 0.593,1.277 0.395,0.244 0.928,0.366 1.593,0.366 z" style="fill:#e24177;fill-opacity:1;fill-rule:nonzero;stroke:none" transform="matrix(1.3333333,0,0,-1.3333333,536.182,477.08573)" clip-path="url(#clipPath10)"></path><path id="path11" d="M 0,0 C 0.484,-0.123 0.835,-0.321 1.049,-0.593 1.263,-0.867 1.335,-1.156 1.279,-1.46 1.214,-1.765 1.049,-2.039 0.775,-2.282 0.5,-2.526 0.121,-2.647 -0.367,-2.647 h -10.583 -0.823 -22.988 -0.824 -10.582 c -0.488,0 -0.867,0.121 -1.142,0.365 -0.274,0.243 -0.444,0.517 -0.5,0.822 -0.065,0.304 0.012,0.593 0.226,0.867 0.214,0.272 0.561,0.47 1.049,0.593 0.488,0.059 1.323,0.258 2.509,0.593 1.186,0.333 2.401,0.912 3.652,1.733 1.246,0.821 2.356,1.977 3.328,3.468 0.972,1.488 1.46,3.451 1.46,5.884 v 33.486 0.731 5.109 c -0.06,2.556 -0.258,5.185 -0.593,7.894 -0.334,2.705 -1.036,5.168 -2.098,7.389 -1.065,2.221 -2.618,4.045 -4.655,5.475 -2.038,1.428 -4.757,2.144 -8.166,2.144 -3.526,0 -6.266,-0.7 -8.21,-2.098 -1.949,-1.399 -3.394,-3.134 -4.334,-5.2 -0.944,-2.07 -1.521,-4.275 -1.734,-6.617 -0.214,-2.342 -0.319,-4.423 -0.319,-6.249 V 11.678 c 0,-2.433 0.484,-4.396 1.46,-5.884 0.973,-1.491 2.082,-2.647 3.329,-3.468 1.246,-0.821 2.465,-1.4 3.651,-1.733 1.186,-0.335 2.021,-0.534 2.51,-0.593 0.484,-0.123 0.835,-0.321 1.049,-0.593 0.209,-0.274 0.286,-0.563 0.225,-0.867 -0.06,-0.305 -0.225,-0.579 -0.5,-0.822 -0.274,-0.244 -0.653,-0.365 -1.142,-0.365 h -45.804 c -0.488,0 -0.867,0.121 -1.141,0.365 -0.271,0.243 -0.44,0.517 -0.501,0.822 -0.06,0.304 0.017,0.593 0.23,0.867 0.21,0.272 0.561,0.47 1.049,0.593 0.484,0.059 1.324,0.258 2.51,0.593 1.186,0.333 2.4,0.912 3.647,1.733 1.247,0.821 2.356,1.977 3.333,3.468 0.972,1.488 1.46,3.451 1.46,5.884 V 62.41 c 0,0.791 -0.367,1.277 -1.097,1.461 -0.121,0 -0.561,0.09 -1.324,0.272 -0.758,0.183 -1.626,0.395 -2.598,0.639 -0.976,0.242 -1.872,0.456 -2.691,0.64 -0.823,0.181 -1.323,0.302 -1.509,0.365 -0.791,0.182 -1.198,0.593 -1.23,1.23 -0.033,0.64 0.411,1.08 1.323,1.324 2.372,0.546 4.942,1.291 7.71,2.235 2.768,0.942 5.551,2.007 8.347,3.193 2.8,1.186 5.507,2.465 8.122,3.833 2.614,1.368 4.958,2.752 7.028,4.152 0.545,0.365 1.109,0.516 1.686,0.456 0.577,-0.061 0.868,-0.517 0.868,-1.368 v -7.847 c 1.275,1.153 2.735,2.265 4.377,3.33 1.642,1.063 3.482,1.991 5.524,2.782 2.037,0.791 4.316,1.428 6.842,1.916 2.522,0.486 5.306,0.731 8.348,0.731 4.986,0 9.17,-0.547 12.547,-1.642 3.373,-1.096 6.173,-2.556 8.392,-4.38 2.219,-1.826 3.925,-3.924 5.111,-6.296 1.187,-2.372 2.038,-4.835 2.554,-7.391 0.517,-2.554 0.819,-5.096 0.912,-7.619 0.093,-2.524 0.137,-4.882 0.137,-7.071 V 46.899 11.678 c 0,-2.433 0.488,-4.396 1.461,-5.884 0.972,-1.491 2.082,-2.647 3.328,-3.468 1.247,-0.821 2.465,-1.4 3.652,-1.733 C -1.323,0.258 -0.488,0.059 0,0" style="fill:#7c2e41;fill-opacity:1;fill-rule:nonzero;stroke:none" transform="matrix(1.3333333,0,0,-1.3333333,714.41107,510.54013)" clip-path="url(#clipPath12)"></path><path id="path13" d="M 0,0 C 1.097,0.547 1.888,0.486 2.372,-0.184 2.86,-0.853 2.889,-1.551 2.465,-2.282 1.372,-4.23 -0.016,-6.009 -1.686,-7.619 c -1.675,-1.614 -3.575,-3.012 -5.705,-4.198 -2.126,-1.186 -4.454,-2.098 -6.98,-2.738 -2.522,-0.637 -5.184,-0.958 -7.98,-0.958 -3.046,0 -6.056,0.398 -9.034,1.186 -2.981,0.791 -5.66,2.205 -8.032,4.243 -2.373,2.037 -4.301,4.805 -5.794,8.305 -1.489,3.496 -2.235,7.952 -2.235,13.366 v 51.279 c 0,0.486 -0.242,0.73 -0.73,0.73 h -2.373 c -1.46,0 -2.356,0.091 -2.691,0.275 -0.334,0.181 -0.5,0.576 -0.5,1.186 0,0.788 0.347,1.626 1.049,2.507 0.698,0.882 1.566,1.323 2.598,1.323 h 2.01 c 0.423,0 0.637,0.243 0.637,0.731 v 21.806 c 0,1.338 0.549,2.1 1.642,2.282 1.521,0.304 3.151,0.714 4.882,1.232 1.735,0.517 3.498,1.124 5.293,1.824 1.791,0.7 3.559,1.461 5.293,2.282 1.731,0.821 3.329,1.688 4.789,2.6 0.67,0.365 1.291,0.425 1.872,0.183 0.577,-0.244 0.864,-0.853 0.864,-1.825 V 69.527 c 0,-0.426 0.246,-0.64 0.73,-0.64 h 17.155 c 1.46,0 2.356,-0.09 2.691,-0.272 0.335,-0.183 0.504,-0.579 0.504,-1.186 0,-0.793 -0.427,-1.63 -1.279,-2.509 -0.851,-0.884 -1.795,-1.324 -2.828,-1.324 H -22.17 c -0.427,0 -0.641,-0.214 -0.641,-0.639 V 6.843 c 0,-1.642 0.29,-3.089 0.867,-4.336 0.577,-1.246 1.34,-2.311 2.284,-3.193 0.94,-0.881 2.037,-1.537 3.284,-1.961 1.247,-0.425 2.509,-0.639 3.784,-0.639 2.615,0 5.051,0.379 7.303,1.142 C -3.042,-1.386 -1.275,-0.672 0,0" style="fill:#7c2e41;fill-opacity:1;fill-rule:nonzero;stroke:none" transform="matrix(1.3333333,0,0,-1.3333333,793.72987,496.42733)" clip-path="url(#clipPath14)"></path><path id="path15" d="m 0,0 c -0.726,1.763 -1.747,3.298 -3.054,4.607 -1.311,1.308 -2.861,2.342 -4.656,3.103 -1.791,0.76 -3.784,1.14 -5.975,1.14 -2.13,0 -4.135,-0.396 -6.024,-1.186 -1.884,-0.791 -3.51,-1.856 -4.877,-3.194 -1.372,-1.337 -2.453,-2.905 -3.24,-4.698 -0.791,-1.795 -1.186,-3.696 -1.186,-5.703 0,-2.007 0.363,-3.893 1.093,-5.658 0.73,-1.763 1.747,-3.284 3.058,-4.561 1.307,-1.277 2.857,-2.298 4.652,-3.056 1.795,-0.763 3.756,-1.142 5.886,-1.142 2.191,0 4.212,0.395 6.068,1.186 1.852,0.791 3.482,1.84 4.882,3.149 1.396,1.307 2.493,2.858 3.284,4.654 0.791,1.793 1.186,3.693 1.186,5.703 C 1.097,-3.649 0.73,-1.765 0,0 m -0.726,-102.741 c 0,-2.433 0.484,-4.396 1.456,-5.885 0.973,-1.49 2.086,-2.646 3.333,-3.467 1.246,-0.821 2.461,-1.4 3.647,-1.733 1.186,-0.335 2.025,-0.535 2.509,-0.593 0.489,-0.123 0.836,-0.321 1.049,-0.593 0.214,-0.275 0.291,-0.563 0.23,-0.868 -0.06,-0.304 -0.23,-0.579 -0.5,-0.821 -0.274,-0.244 -0.657,-0.365 -1.142,-0.365 h -45.804 c -0.488,0 -0.867,0.121 -1.141,0.365 -0.275,0.242 -0.44,0.517 -0.501,0.821 -0.06,0.305 0.012,0.593 0.226,0.868 0.214,0.272 0.565,0.47 1.049,0.593 0.488,0.058 1.324,0.258 2.51,0.593 1.186,0.333 2.404,0.912 3.651,1.733 1.247,0.821 2.356,1.977 3.328,3.467 0.973,1.489 1.461,3.452 1.461,5.885 v 50.732 c 0,0.791 -0.363,1.277 -1.093,1.46 -0.121,0 -0.565,0.091 -1.324,0.273 -0.762,0.183 -1.63,0.395 -2.602,0.639 -0.972,0.242 -1.868,0.456 -2.691,0.64 -0.819,0.181 -1.323,0.302 -1.505,0.365 -0.791,0.181 -1.202,0.593 -1.23,1.23 -0.033,0.64 0.411,1.08 1.323,1.324 2.372,0.546 4.938,1.291 7.71,2.235 2.768,0.942 5.547,2.007 8.347,3.193 2.796,1.186 5.503,2.465 8.122,3.833 2.614,1.368 4.958,2.751 7.024,4.151 0.549,0.366 1.109,0.517 1.69,0.456 0.577,-0.06 0.868,-0.516 0.868,-1.367 z" style="fill:#7c2e41;fill-opacity:1;fill-rule:nonzero;stroke:none" transform="matrix(1.3333333,0,0,-1.3333333,850.4176,357.9812)" clip-path="url(#clipPath16)"></path><path id="path17" d="M 0,0 C 1.097,0.547 1.888,0.486 2.372,-0.184 2.86,-0.853 2.889,-1.551 2.465,-2.282 1.372,-4.23 -0.016,-6.009 -1.686,-7.619 c -1.675,-1.614 -3.575,-3.012 -5.705,-4.198 -2.126,-1.186 -4.454,-2.098 -6.98,-2.738 -2.522,-0.637 -5.184,-0.958 -7.98,-0.958 -3.046,0 -6.056,0.398 -9.034,1.186 -2.981,0.791 -5.66,2.205 -8.032,4.243 -2.373,2.037 -4.301,4.805 -5.794,8.305 -1.489,3.496 -2.235,7.952 -2.235,13.366 v 51.279 c 0,0.486 -0.242,0.73 -0.73,0.73 h -2.373 c -1.46,0 -2.356,0.091 -2.691,0.275 -0.334,0.181 -0.5,0.576 -0.5,1.186 0,0.788 0.347,1.626 1.049,2.507 0.698,0.882 1.565,1.323 2.598,1.323 h 2.01 c 0.423,0 0.637,0.243 0.637,0.731 v 21.806 c 0,1.338 0.549,2.1 1.642,2.282 1.521,0.304 3.151,0.714 4.882,1.232 1.735,0.517 3.498,1.124 5.293,1.824 1.791,0.7 3.559,1.461 5.293,2.282 1.731,0.821 3.329,1.688 4.789,2.6 0.67,0.365 1.291,0.425 1.872,0.183 0.577,-0.244 0.864,-0.853 0.864,-1.825 V 69.527 c 0,-0.426 0.246,-0.64 0.73,-0.64 h 17.155 c 1.46,0 2.356,-0.09 2.691,-0.272 0.335,-0.183 0.504,-0.579 0.504,-1.186 0,-0.793 -0.428,-1.63 -1.279,-2.509 -0.851,-0.884 -1.795,-1.324 -2.828,-1.324 H -22.17 c -0.427,0 -0.641,-0.214 -0.641,-0.639 V 6.843 c 0,-1.642 0.29,-3.089 0.867,-4.336 0.577,-1.246 1.34,-2.311 2.284,-3.193 0.94,-0.881 2.037,-1.537 3.284,-1.961 1.246,-0.425 2.509,-0.639 3.784,-0.639 2.615,0 5.051,0.379 7.303,1.142 C -3.042,-1.386 -1.275,-0.672 0,0" style="fill:#7c2e41;fill-opacity:1;fill-rule:nonzero;stroke:none" transform="matrix(1.3333333,0,0,-1.3333333,945.7992,496.42733)" clip-path="url(#clipPath18)"></path><path id="path19" d="M 0,0 C 0,0.365 -0.149,0.607 -0.456,0.73 -0.759,0.851 -1.033,0.758 -1.275,0.456 -1.763,-0.093 -2.203,-0.609 -2.598,-1.095 -2.994,-1.584 -3.526,-2.16 -4.196,-2.828 -5.354,-4.047 -6.54,-5.186 -7.754,-6.251 c -1.219,-1.066 -2.433,-2.145 -3.652,-3.238 -1.214,-0.975 -2.416,-1.949 -3.602,-2.921 -1.187,-0.973 -2.296,-2.038 -3.329,-3.194 -1.585,-1.823 -2.756,-3.818 -3.514,-5.977 -0.763,-2.158 -1.142,-4.456 -1.142,-6.887 0,-1.644 0.242,-3.302 0.73,-4.974 0.489,-1.672 1.231,-3.163 2.236,-4.47 1.004,-1.31 2.283,-2.373 3.832,-3.194 1.554,-0.821 3.422,-1.232 5.612,-1.232 2.191,0 3.97,0.458 5.338,1.369 1.368,0.912 2.433,2.008 3.191,3.285 0.763,1.276 1.295,2.57 1.598,3.877 0.307,1.309 0.456,2.328 0.456,3.058 z m 6.116,41.15 c 0.363,-0.609 0.392,-1.095 0.089,-1.46 -0.303,-0.366 -0.791,-0.396 -1.46,-0.091 -2.494,1.095 -5.306,2.509 -8.441,4.242 -3.13,1.735 -6.233,3.651 -9.303,5.749 -3.075,2.098 -5.919,4.289 -8.533,6.571 -2.615,2.279 -4.596,4.484 -5.931,6.614 -0.67,0.972 -1.202,2.098 -1.598,3.375 -0.395,1.279 -0.577,2.51 -0.544,3.696 0.028,1.186 0.33,2.295 0.911,3.33 0.577,1.035 1.505,1.826 2.78,2.372 1.219,0.549 2.389,0.777 3.514,0.686 1.126,-0.092 2.191,-0.381 3.196,-0.867 1,-0.488 1.928,-1.142 2.783,-1.963 0.848,-0.821 1.61,-1.686 2.28,-2.6 0.121,-0.123 0.654,-0.866 1.598,-2.235 0.94,-1.368 2.098,-3.056 3.465,-5.064 1.368,-2.007 2.861,-4.198 4.471,-6.57 C -2.994,54.563 -1.461,52.296 0,50.137 1.46,47.979 2.752,46.078 3.877,44.434 5.003,42.792 5.749,41.697 6.116,41.15 m 25.547,-81.937 c 0.851,0.184 1.521,0.014 2.009,-0.5 0.484,-0.519 0.513,-1.203 0.089,-2.054 -0.363,-0.67 -0.956,-1.46 -1.779,-2.372 -0.819,-0.914 -1.917,-1.765 -3.284,-2.556 -1.368,-0.791 -3.042,-1.459 -5.019,-2.007 -1.977,-0.547 -4.305,-0.821 -6.98,-0.821 -3.712,0 -6.831,0.746 -9.352,2.235 -2.526,1.491 -4.277,3.207 -5.249,5.156 -0.242,0.486 -0.593,0.698 -1.049,0.639 -0.456,-0.062 -0.835,-0.244 -1.138,-0.548 -0.185,-0.182 -0.746,-0.684 -1.69,-1.505 -0.944,-0.821 -2.28,-1.705 -4.015,-2.647 -1.73,-0.944 -3.816,-1.793 -6.249,-2.554 -2.433,-0.76 -5.233,-1.141 -8.396,-1.141 -5.414,0 -9.961,0.762 -13.641,2.281 -3.679,1.519 -6.661,3.482 -8.94,5.884 -2.28,2.403 -3.922,5.11 -4.926,8.122 -1.005,3.012 -1.505,6.007 -1.505,8.987 0,4.805 1.351,9.003 4.059,12.592 2.707,3.588 6.217,6.265 10.538,8.03 2.312,0.912 4.728,1.566 7.254,1.961 2.525,0.396 5.031,0.805 7.528,1.233 2.494,0.423 4.942,0.958 7.343,1.595 2.405,0.64 4.668,1.689 6.798,3.149 2.251,1.519 3.817,3.468 4.7,5.84 0.88,2.373 1.324,4.894 1.324,7.573 0,1.945 -0.258,3.817 -0.775,5.61 -0.52,1.795 -1.247,3.361 -2.191,4.7 -0.944,1.338 -2.037,2.403 -3.284,3.194 -1.246,0.79 -2.602,1.186 -4.062,1.186 -2.615,0 -4.531,-0.67 -5.746,-2.007 -1.218,-1.34 -2.178,-2.952 -2.876,-4.836 -0.698,-1.886 -1.356,-3.849 -1.961,-5.886 -0.609,-2.038 -1.582,-3.787 -2.921,-5.247 -1.093,-1.156 -2.509,-2.021 -4.24,-2.6 -1.735,-0.579 -3.393,-0.866 -4.975,-0.866 -1.642,0 -3.102,0.273 -4.377,0.821 -1.279,0.547 -2.373,1.291 -3.288,2.235 -0.912,0.943 -1.594,2.038 -2.054,3.285 -0.456,1.246 -0.682,2.57 -0.682,3.97 0,1.884 0.456,3.77 1.368,5.656 0.912,1.884 2.538,3.589 4.882,5.11 2.34,1.519 5.491,2.751 9.444,3.695 3.954,0.942 8.973,1.414 15.053,1.414 6.754,0 12.515,-0.683 17.292,-2.053 4.773,-1.368 8.67,-3.361 11.68,-5.975 3.01,-2.617 5.201,-5.856 6.568,-9.717 1.368,-3.866 2.054,-8.259 2.054,-13.185 0,-5.903 -0.182,-11.438 -0.549,-16.608 -0.363,-5.171 -0.621,-9.748 -0.774,-13.732 -0.154,-3.984 -0.077,-7.27 0.23,-9.854 0.302,-2.586 1.153,-4.182 2.553,-4.789 0.606,-0.307 1.368,-0.444 2.28,-0.412 0.912,0.03 1.884,0.137 2.921,0.319" style="fill:#7c2e41;fill-opacity:1;fill-rule:nonzero;stroke:none" transform="matrix(1.3333333,0,0,-1.3333333,1018.6681,448.4944)" clip-path="url(#clipPath20)"></path><path id="path21" d="m 0,0 v 68.988 c 0,0.482 -0.212,0.724 -0.633,0.724 h -2.714 c -1.448,0 -2.338,0.089 -2.668,0.27 -0.333,0.182 -0.499,0.573 -0.499,1.176 0,0.783 0.347,1.614 1.041,2.488 0.692,0.873 1.551,1.313 2.578,1.313 h 2.262 c 0.421,0 0.633,0.24 0.633,0.722 0,6.211 0.105,11.49 0.317,15.832 0.21,4.343 0.589,8.081 1.131,11.218 0.543,3.134 1.265,5.817 2.171,8.05 0.904,2.23 2.05,4.342 3.437,6.333 1.628,2.231 3.543,4.101 5.746,5.608 2.198,1.507 4.567,2.715 7.1,3.619 2.532,0.903 5.156,1.537 7.87,1.9 2.715,0.361 5.428,0.543 8.141,0.543 3.498,0 6.724,-0.408 9.679,-1.223 2.955,-0.813 5.503,-1.914 7.646,-3.3 2.14,-1.39 3.812,-3.018 5.021,-4.886 1.204,-1.87 1.809,-3.861 1.809,-5.971 0,-3.137 -0.936,-5.729 -2.806,-7.779 -1.87,-2.051 -4.432,-3.076 -7.688,-3.076 -3.258,0 -5.88,0.934 -7.871,2.804 -1.989,1.868 -2.986,4.462 -2.986,7.781 0,0.843 0.031,1.912 0.091,3.211 0.061,1.295 0,2.546 -0.181,3.754 -0.18,1.205 -0.573,2.245 -1.175,3.121 -0.605,0.873 -1.569,1.311 -2.894,1.311 -2.112,0 -3.831,-0.785 -5.158,-2.352 -1.328,-1.569 -2.353,-3.754 -3.075,-6.558 -0.724,-2.804 -1.222,-6.151 -1.493,-10.042 C 24.56,101.69 24.425,97.451 24.425,92.87 V 75.681 c 0,-0.482 0.24,-0.722 0.724,-0.722 h 16.735 c 1.447,0 2.336,-0.091 2.669,-0.272 0.331,-0.182 0.496,-0.573 0.496,-1.176 0,-0.785 -0.405,-1.614 -1.22,-2.488 -0.815,-0.875 -1.735,-1.311 -2.76,-1.311 H 25.058 c -0.423,0 -0.633,-0.212 -0.633,-0.633 V 8.198" style="fill:#7c2e41;fill-opacity:1;fill-rule:nonzero;stroke:none" transform="matrix(1.3333333,0,0,-1.3333333,415.64587,367.1792)" clip-path="url(#clipPath22)"></path><path id="path23" d="m 0,0 c -0.724,1.749 -1.735,3.27 -3.03,4.567 -1.299,1.297 -2.836,2.322 -4.613,3.076 -1.782,0.755 -3.755,1.132 -5.927,1.132 -2.11,0 -4.101,-0.393 -5.969,-1.176 -1.87,-0.785 -3.484,-1.842 -4.84,-3.167 -1.357,-1.327 -2.428,-2.881 -3.211,-4.658 -0.785,-1.779 -1.176,-3.663 -1.176,-5.654 0,-1.991 0.361,-3.861 1.085,-5.608 0.722,-1.751 1.733,-3.258 3.03,-4.525 1.297,-1.265 2.834,-2.276 4.614,-3.03 1.777,-0.754 3.723,-1.13 5.833,-1.13 2.173,0 4.176,0.392 6.018,1.176 1.838,0.783 3.451,1.822 4.839,3.121 1.386,1.295 2.472,2.834 3.256,4.614 0.783,1.777 1.176,3.663 1.176,5.654 C 1.085,-3.619 0.724,-1.751 0,0 m -0.724,-101.86 c 0,-2.414 0.482,-4.359 1.448,-5.836 0.964,-1.478 2.064,-2.622 3.302,-3.437 1.235,-0.815 2.441,-1.388 3.617,-1.719 1.176,-0.333 2.006,-0.528 2.49,-0.589 0.48,-0.121 0.827,-0.314 1.039,-0.587 0.211,-0.272 0.286,-0.559 0.226,-0.859 -0.061,-0.303 -0.226,-0.575 -0.497,-0.815 -0.272,-0.24 -0.649,-0.361 -1.131,-0.361 h -45.413 c -0.482,0 -0.859,0.121 -1.13,0.361 -0.272,0.24 -0.437,0.512 -0.498,0.815 -0.06,0.3 0.014,0.587 0.226,0.859 0.212,0.273 0.557,0.466 1.041,0.587 0.482,0.061 1.311,0.256 2.487,0.589 1.176,0.331 2.383,0.904 3.619,1.719 1.235,0.815 2.336,1.959 3.302,3.437 0.965,1.477 1.447,3.422 1.447,5.836 v 50.297 c 0,0.782 -0.361,1.267 -1.085,1.446 -0.122,0 -0.559,0.091 -1.312,0.272 -0.754,0.18 -1.614,0.392 -2.578,0.634 -0.966,0.24 -1.854,0.452 -2.669,0.633 -0.815,0.18 -1.311,0.301 -1.492,0.361 -0.785,0.182 -1.193,0.587 -1.221,1.221 -0.032,0.633 0.408,1.071 1.311,1.313 2.353,0.543 4.9,1.279 7.644,2.215 2.743,0.934 5.503,1.991 8.277,3.167 2.773,1.176 5.458,2.443 8.053,3.799 2.592,1.357 4.914,2.729 6.965,4.117 0.543,0.361 1.1,0.51 1.672,0.452 0.573,-0.061 0.86,-0.513 0.86,-1.358 z" style="fill:#7c2e41;fill-opacity:1;fill-rule:nonzero;stroke:none" transform="matrix(1.3333333,0,0,-1.3333333,542.00387,221.03867)" clip-path="url(#clipPath24)"></path><path id="path25" d="m 0,0 c 0,-2.473 0.527,-4.464 1.584,-5.971 1.053,-1.509 2.261,-2.699 3.617,-3.573 1.357,-0.875 2.682,-1.492 3.982,-1.856 1.295,-0.361 2.184,-0.572 2.666,-0.633 0.483,-0.121 0.829,-0.315 1.041,-0.587 0.212,-0.272 0.287,-0.559 0.226,-0.859 -0.06,-0.303 -0.226,-0.575 -0.496,-0.815 -0.272,-0.24 -0.65,-0.361 -1.132,-0.361 h -47.401 c -0.484,0 -0.86,0.121 -1.132,0.361 -0.27,0.24 -0.438,0.512 -0.496,0.815 -0.063,0.3 0.014,0.587 0.226,0.859 0.209,0.272 0.556,0.466 1.039,0.587 0.482,0.061 1.371,0.272 2.668,0.633 1.298,0.364 2.625,0.981 3.98,1.856 1.358,0.874 2.564,2.064 3.619,3.573 1.055,1.507 1.584,3.498 1.584,5.971 v 101.408 c 0,0.782 -0.361,1.267 -1.085,1.446 -0.121,0 -0.559,0.091 -1.312,0.272 -0.756,0.182 -1.615,0.392 -2.578,0.634 -0.966,0.24 -1.855,0.452 -2.668,0.633 -0.815,0.18 -1.314,0.301 -1.493,0.361 -0.785,0.182 -1.192,0.589 -1.223,1.221 -0.03,0.633 0.408,1.071 1.314,1.313 2.352,0.543 4.897,1.281 7.643,2.215 2.743,0.936 5.503,1.991 8.277,3.167 2.774,1.176 5.457,2.443 8.051,3.799 2.592,1.357 4.916,2.729 6.965,4.117 0.543,0.361 1.1,0.51 1.675,0.452 C -0.286,120.977 0,120.525 0,119.68 Z" style="fill:#7c2e41;fill-opacity:1;fill-rule:nonzero;stroke:none" transform="matrix(1.3333333,0,0,-1.3333333,604.7496,356.24893)" clip-path="url(#clipPath26)"></path><path id="path27" d="m 0,0 c 2.895,0 5.412,0.995 7.553,2.984 2.14,1.991 3.919,4.718 5.337,8.188 1.416,3.467 2.488,7.522 3.212,12.166 0.724,4.643 1.085,9.59 1.085,14.837 0,5.247 -0.361,10.191 -1.085,14.835 -0.724,4.643 -1.796,8.698 -3.212,12.168 -1.418,3.467 -3.197,6.197 -5.337,8.186 -2.141,1.991 -4.658,2.985 -7.553,2.985 -2.895,0 -5.414,-0.994 -7.555,-2.985 -2.14,-1.989 -3.933,-4.719 -5.382,-8.186 -1.446,-3.47 -2.517,-7.525 -3.211,-12.168 -0.694,-4.644 -1.039,-9.588 -1.039,-14.835 0,-5.247 0.345,-10.194 1.039,-14.837 0.694,-4.644 1.765,-8.699 3.211,-12.166 1.449,-3.47 3.242,-6.197 5.382,-8.188 C -5.414,0.995 -2.895,0 0,0 m 0.904,81.144 c 6.211,0 11.926,-1.101 17.142,-3.302 5.217,-2.203 9.695,-5.217 13.435,-9.047 3.738,-3.829 6.663,-8.338 8.773,-13.524 2.113,-5.186 3.168,-10.734 3.168,-16.644 0,-5.972 -1.146,-11.58 -3.438,-16.826 C 37.691,16.554 34.556,11.954 30.576,8.004 26.596,4.055 21.905,0.934 16.509,-1.358 11.111,-3.649 5.305,-4.795 -0.906,-4.795 c -6.211,0 -11.926,1.101 -17.14,3.302 -5.219,2.201 -9.695,5.215 -13.435,9.046 -3.74,3.828 -6.665,8.323 -8.776,13.479 -2.11,5.156 -3.165,10.72 -3.165,16.691 0,5.908 1.144,11.502 3.438,16.779 2.291,5.278 5.426,9.891 9.408,13.841 3.98,3.95 8.669,7.07 14.067,9.364 5.396,2.29 11.202,3.437 17.413,3.437" style="fill:#7c2e41;fill-opacity:1;fill-rule:nonzero;stroke:none" transform="matrix(1.3333333,0,0,-1.3333333,676.27693,372.41133)" clip-path="url(#clipPath28)"></path><path id="path29" d="m 124.355,175.052 h 4.418 v -23.786 h -4.418 z" style="fill:#e24177;fill-opacity:1;fill-rule:nonzero;stroke:none" transform="matrix(1.3333333,0,0,-1.3333333,0,793.70133)" clip-path="url(#clipPath30)"></path><path id="path31" d="M 0,0 V -23.786 H -3.635 L -16.751,-7.68 v -16.106 h -4.384 V 0 h 3.637 L -4.384,-16.106 V 0 Z" style="fill:#e24177;fill-opacity:1;fill-rule:nonzero;stroke:none" transform="matrix(1.3333333,0,0,-1.3333333,217.49427,560.29907)" clip-path="url(#clipPath32)"></path><path id="path33" d="m 0,0 c 0,7.103 5.437,12.233 12.743,12.233 3.873,0 7.202,-1.394 9.411,-3.976 L 19.299,5.574 C 17.566,7.442 15.426,8.36 12.947,8.36 8.019,8.36 4.452,4.894 4.452,0 c 0,-4.892 3.567,-8.358 8.495,-8.358 2.479,0 4.619,0.918 6.352,2.821 l 2.855,-2.72 c -2.209,-2.582 -5.538,-3.974 -9.445,-3.974 C 5.437,-12.231 0,-7.101 0,0" style="fill:#e24177;fill-opacity:1;fill-rule:nonzero;stroke:none" transform="matrix(1.3333333,0,0,-1.3333333,232.79853,576.15747)" clip-path="url(#clipPath34)"></path><path id="path35" d="m 0,0 c 0,4.86 -3.569,8.36 -8.36,8.36 -4.791,0 -8.357,-3.5 -8.357,-8.36 0,-4.858 3.566,-8.358 8.357,-8.358 4.791,0 8.36,3.5 8.36,8.358 m -21.169,0 c 0,7.034 5.436,12.233 12.809,12.233 7.374,0 12.81,-5.165 12.81,-12.233 0,-7.066 -5.436,-12.231 -12.81,-12.231 -7.373,0 -12.809,5.199 -12.809,12.231" style="fill:#e24177;fill-opacity:1;fill-rule:nonzero;stroke:none" transform="matrix(1.3333333,0,0,-1.3333333,302.33493,576.15747)" clip-path="url(#clipPath36)"></path><path id="path37" d="M 0,0 V -23.786 H -3.635 L -16.751,-7.68 v -16.106 h -4.384 V 0 h 3.637 L -4.384,-16.106 V 0 Z" style="fill:#e24177;fill-opacity:1;fill-rule:nonzero;stroke:none" transform="matrix(1.3333333,0,0,-1.3333333,351.75253,560.29907)" clip-path="url(#clipPath38)"></path><path id="path39" d="M 0,0 H -7.883 V 3.738 H 12.301 V 0 H 4.418 V -20.048 H 0 Z" style="fill:#e24177;fill-opacity:1;fill-rule:nonzero;stroke:none" transform="matrix(1.3333333,0,0,-1.3333333,375.7552,565.28307)" clip-path="url(#clipPath40)"></path><path id="path41" d="M 0,0 H -5.164 V -9.481 H 0 c 3.873,0 5.878,1.767 5.878,4.759 C 5.878,-1.733 3.873,0 0,0 m 5.981,-20.048 -4.859,6.966 C 0.815,-13.116 0.51,-13.116 0.204,-13.116 h -5.368 v -6.932 H -9.582 V 3.738 h 9.786 c 6.253,0 10.126,-3.195 10.126,-8.46 0,-3.603 -1.835,-6.254 -5.063,-7.511 l 5.471,-7.815 z" style="fill:#e24177;fill-opacity:1;fill-rule:nonzero;stroke:none" transform="matrix(1.3333333,0,0,-1.3333333,418.4244,565.28307)" clip-path="url(#clipPath42)"></path><path id="path43" d="m 335.863,175.052 h 4.418 v -23.786 h -4.418 z" style="fill:#e24177;fill-opacity:1;fill-rule:nonzero;stroke:none" transform="matrix(1.3333333,0,0,-1.3333333,0,793.70133)" clip-path="url(#clipPath44)"></path><path id="path45" d="m 0,0 c 0,-0.746 -0.169,-1.36 -0.781,-2.921 l -1.733,-4.791 h -2.753 l 1.36,5.198 C -4.86,-2.106 -5.505,-1.222 -5.505,0 c 0,1.699 1.19,2.82 2.753,2.82 C -1.156,2.82 0,1.664 0,0" style="fill:#e24177;fill-opacity:1;fill-rule:nonzero;stroke:none" transform="matrix(1.3333333,0,0,-1.3333333,476.30907,588.5704)" clip-path="url(#clipPath46)"></path><path id="path47" d="M 0,0 1.529,3.433 C 3.431,1.904 6.455,0.817 9.376,0.817 c 3.704,0 5.267,1.325 5.267,3.09 0,5.132 -14.135,1.768 -14.135,10.603 0,3.839 3.059,7.101 9.582,7.101 2.855,0 5.844,-0.746 7.918,-2.106 l -1.394,-3.431 c -2.14,1.256 -4.484,1.868 -6.558,1.868 -3.669,0 -5.164,-1.427 -5.164,-3.228 0,-5.063 14.101,-1.767 14.101,-10.5 C 18.993,0.41 15.9,-2.852 9.376,-2.852 5.673,-2.852 1.969,-1.699 0,0" style="fill:#e24177;fill-opacity:1;fill-rule:nonzero;stroke:none" transform="matrix(1.3333333,0,0,-1.3333333,510.32547,588.66187)" clip-path="url(#clipPath48)"></path><path id="path49" d="M 0,0 H -7.883 V 3.738 H 12.301 V 0 H 4.418 V -20.048 H 0 Z" style="fill:#e24177;fill-opacity:1;fill-rule:nonzero;stroke:none" transform="matrix(1.3333333,0,0,-1.3333333,556.5288,565.28307)" clip-path="url(#clipPath50)"></path><path id="path51" d="m 0,0 c 0,4.86 -3.569,8.36 -8.36,8.36 -4.791,0 -8.357,-3.5 -8.357,-8.36 0,-4.858 3.566,-8.358 8.357,-8.358 4.791,0 8.36,3.5 8.36,8.358 m -21.169,0 c 0,7.034 5.436,12.233 12.809,12.233 7.374,0 12.81,-5.165 12.81,-12.233 0,-7.066 -5.436,-12.231 -12.81,-12.231 -7.373,0 -12.809,5.199 -12.809,12.231" style="fill:#e24177;fill-opacity:1;fill-rule:nonzero;stroke:none" transform="matrix(1.3333333,0,0,-1.3333333,611.93093,576.15747)" clip-path="url(#clipPath52)"></path><path id="path53" d="M 0,0 H -5.164 V -9.481 H 0 c 3.873,0 5.878,1.767 5.878,4.759 C 5.878,-1.733 3.873,0 0,0 m 5.981,-20.048 -4.859,6.966 C 0.815,-13.116 0.51,-13.116 0.204,-13.116 h -5.368 v -6.932 H -9.582 V 3.738 h 9.786 c 6.253,0 10.126,-3.195 10.126,-8.46 0,-3.603 -1.835,-6.254 -5.063,-7.511 l 5.471,-7.815 z" style="fill:#e24177;fill-opacity:1;fill-rule:nonzero;stroke:none" transform="matrix(1.3333333,0,0,-1.3333333,645.94467,565.28307)" clip-path="url(#clipPath54)"></path><path id="path55" d="m 506.503,175.052 h 4.418 v -23.786 h -4.418 z" style="fill:#e24177;fill-opacity:1;fill-rule:nonzero;stroke:none" transform="matrix(1.3333333,0,0,-1.3333333,0,793.70133)" clip-path="url(#clipPath56)"></path><path id="path57" d="M 0,0 V -3.704 H -17.839 V 20.082 H -0.476 V 16.378 H -13.421 V 10.193 H -1.937 V 6.558 H -13.421 V 0 Z" style="fill:#e24177;fill-opacity:1;fill-rule:nonzero;stroke:none" transform="matrix(1.3333333,0,0,-1.3333333,722.63027,587.07493)" clip-path="url(#clipPath58)"></path><path id="path59" d="m 0,0 c 0,-0.746 -0.169,-1.36 -0.781,-2.921 l -1.732,-4.791 h -2.754 l 1.36,5.198 C -4.86,-2.106 -5.505,-1.222 -5.505,0 c 0,1.699 1.19,2.82 2.753,2.82 C -1.156,2.82 0,1.664 0,0" style="fill:#e24177;fill-opacity:1;fill-rule:nonzero;stroke:none" transform="matrix(1.3333333,0,0,-1.3333333,743.6904,588.5704)" clip-path="url(#clipPath60)"></path><path id="path61" d="m 0,0 c 0,7.103 5.437,12.233 12.743,12.233 3.873,0 7.202,-1.394 9.411,-3.976 L 19.299,5.574 C 17.566,7.442 15.426,8.36 12.947,8.36 8.019,8.36 4.452,4.894 4.452,0 c 0,-4.892 3.567,-8.358 8.495,-8.358 2.479,0 4.619,0.918 6.352,2.821 l 2.855,-2.72 c -2.209,-2.582 -5.538,-3.974 -9.445,-3.974 C 5.437,-12.231 0,-7.101 0,0" style="fill:#e24177;fill-opacity:1;fill-rule:nonzero;stroke:none" transform="matrix(1.3333333,0,0,-1.3333333,778.11293,576.15747)" clip-path="url(#clipPath62)"></path><path id="path63" d="m 0,0 c 0,4.86 -3.568,8.36 -8.359,8.36 -4.792,0 -8.358,-3.5 -8.358,-8.36 0,-4.858 3.566,-8.358 8.358,-8.358 C -3.568,-8.358 0,-4.858 0,0 m -21.169,0 c 0,7.034 5.436,12.233 12.81,12.233 C -0.986,12.233 4.45,7.068 4.45,0 c 0,-7.066 -5.436,-12.231 -12.809,-12.231 -7.374,0 -12.81,5.199 -12.81,12.231" style="fill:#e24177;fill-opacity:1;fill-rule:nonzero;stroke:none" transform="matrix(1.3333333,0,0,-1.3333333,847.64667,576.15747)" clip-path="url(#clipPath64)"></path><path id="path65" d="M 0,0 H -5.164 V -9.481 H 0 c 3.873,0 5.878,1.767 5.878,4.759 C 5.878,-1.733 3.873,0 0,0 m 5.981,-20.048 -4.859,6.966 C 0.817,-13.116 0.51,-13.116 0.204,-13.116 h -5.368 v -6.932 H -9.582 V 3.738 h 9.786 c 6.253,0 10.126,-3.195 10.126,-8.46 0,-3.603 -1.835,-6.254 -5.063,-7.511 l 5.471,-7.815 z" style="fill:#e24177;fill-opacity:1;fill-rule:nonzero;stroke:none" transform="matrix(1.3333333,0,0,-1.3333333,881.6604,565.28307)" clip-path="url(#clipPath66)"></path><path id="path67" d="m 0,0 c 0,2.99 -2.005,4.722 -5.878,4.722 h -5.164 v -9.446 h 5.164 C -2.005,-4.724 0,-2.992 0,0 m 4.452,0 c 0,-5.233 -3.873,-8.462 -10.127,-8.462 h -5.367 v -6.863 H -15.46 V 8.46 h 9.785 C 0.579,8.46 4.452,5.265 4.452,0" style="fill:#e24177;fill-opacity:1;fill-rule:nonzero;stroke:none" transform="matrix(1.3333333,0,0,-1.3333333,931.66973,571.5796)" clip-path="url(#clipPath68)"></path><path id="path69" d="m 714.41,175.052 h 4.418 v -23.786 h -4.418 z" style="fill:#e24177;fill-opacity:1;fill-rule:nonzero;stroke:none" transform="matrix(1.3333333,0,0,-1.3333333,0,793.70133)" clip-path="url(#clipPath70)"></path><path id="path71" d="M 108.25,159.905 H 48.256 v 3.317 h 59.994 z" style="fill:#7c2e41;fill-opacity:1;fill-rule:nonzero;stroke:none" transform="matrix(1.3333333,0,0,-1.3333333,0,793.70133)" clip-path="url(#clipPath72)"></path><path id="path73" d="m 794.927,159.905 h -59.994 v 3.317 h 59.994 z" style="fill:#7c2e41;fill-opacity:1;fill-rule:nonzero;stroke:none" transform="matrix(1.3333333,0,0,-1.3333333,0,793.70133)" clip-path="url(#clipPath74)"></path></g></svg>